<?xml version="1.0" standalone="no"?>
<!DOCTYPE svg PUBLIC "-//W3C//DTD SVG 20010904//EN"
 "http://www.w3.org/TR/2001/REC-SVG-20010904/DTD/svg10.dtd">
<svg version="1.0" xmlns="http://www.w3.org/2000/svg"
 width="1280.000000pt" height="487.000000pt" viewBox="0 0 1280.000000 487.000000"
 preserveAspectRatio="xMidYMid meet">
<metadata>
Created by potrace 1.16, written by Peter Selinger 2001-2019
</metadata>
<g transform="translate(0.000000,487.000000) scale(0.100000,-0.100000)"
fill="#000000" stroke="none">
<path d="M2259 4138 c-43 -48 -36 -111 19 -155 27 -22 98 -16 129 11 24 21 28
32 28 76 0 68 -33 100 -101 100 -38 0 -50 -5 -75 -32z"/>
<path d="M2889 4055 c-15 -8 -34 -30 -43 -50 -48 -100 77 -191 163 -119 27 22
31 32 31 74 0 42 -4 52 -35 79 -39 34 -74 39 -116 16z"/>
<path d="M1720 3992 c-110 -49 -87 -202 29 -202 46 0 79 23 97 66 33 79 -51
169 -126 136z"/>
<path d="M3358 3671 c-28 -25 -33 -36 -33 -74 0 -55 31 -93 82 -103 61 -12
123 36 123 96 0 55 -57 110 -114 110 -14 0 -40 -13 -58 -29z"/>
<path d="M1248 3545 c-54 -50 -42 -137 23 -170 37 -20 78 -13 113 20 44 41 46
96 5 148 -29 38 -102 39 -141 2z"/>
<path d="M1077 2989 c-24 -14 -47 -62 -47 -100 0 -41 56 -99 95 -99 91 0 139
109 79 179 -21 26 -33 31 -67 31 -23 0 -50 -5 -60 -11z"/>
<path d="M1200 2402 c-59 -29 -76 -91 -40 -149 62 -102 223 -20 176 90 -27 64
-80 87 -136 59z"/>
<path d="M3251 2011 c-26 -24 -31 -37 -31 -73 0 -60 40 -100 100 -102 36 -1
46 4 76 36 44 49 45 85 3 133 -27 30 -37 35 -74 35 -34 0 -50 -6 -74 -29z"/>
<path d="M1551 1914 c-80 -67 2 -208 102 -175 51 17 68 41 69 97 0 42 -3 51
-31 76 -42 38 -97 38 -140 2z"/>
<path d="M2744 1719 c-28 -14 -54 -61 -54 -96 0 -34 24 -65 65 -86 39 -19 78
-12 115 23 39 36 42 95 7 135 -25 30 -96 43 -133 24z"/>
<path d="M2107 1662 c-29 -30 -36 -86 -17 -123 14 -25 62 -49 101 -49 42 0 99
56 99 97 0 60 -46 103 -110 103 -38 0 -51 -5 -73 -28z"/>
</g>
</svg>
